<svg width="20" height="20" viewBox="0 0 20 20" fill="none" xmlns="http://www.w3.org/2000/svg">
<path d="M9.81395 0C4.40264 0 0 4.4861 0 10C0 15.5139 4.40264 20 9.81395 20C15.2253 20 19.6279 15.5139 19.6279 10C19.6279 4.4861 15.2253 0 9.81395 0ZM9.81395 18.75C5.07888 18.75 1.22675 14.8248 1.22675 10C1.22675 5.17517 5.07888 1.25001 9.81395 1.25001C14.549 1.25001 18.4012 5.17517 18.4012 10C18.4012 14.8248 14.549 18.75 9.81395 18.75Z" fill="#FEFCFC"/>
<path d="M10.4273 3.75002H9.20056V10.2588L13.0605 14.1919L13.9278 13.3081L10.4273 9.74121V3.75002Z" fill="#FEFCFC"/>
</svg>
