<svg width="14" height="20" viewBox="0 0 14 20" fill="none" xmlns="http://www.w3.org/2000/svg">
<path d="M6.90044 0C3.09554 0 0 3.15422 0 7.03125C0 8.34117 0.356101 9.61953 1.03004 10.7286L6.50765 19.723C6.61257 19.8953 6.79743 20 6.99624 20C6.99777 20 6.99927 20 7.0008 20C7.20133 19.9984 7.38657 19.8905 7.48958 19.7152L12.8276 10.6336C13.4643 9.54797 13.8009 8.30231 13.8009 7.03125C13.8009 3.15422 10.7053 0 6.90044 0ZM11.8406 10.032L6.98753 18.2885L2.00753 10.1112C1.44656 9.18805 1.14241 8.12305 1.14241 7.03125C1.14241 3.80039 3.72969 1.16406 6.90044 1.16406C10.0712 1.16406 12.6546 3.80039 12.6546 7.03125C12.6546 8.09066 12.3705 9.12844 11.8406 10.032Z" fill="black"/>
<path d="M6.90041 3.51562C4.99796 3.51562 3.4502 5.09273 3.4502 7.03125C3.4502 8.95738 4.97278 10.5469 6.90041 10.5469C8.85182 10.5469 10.3506 8.93621 10.3506 7.03125C10.3506 5.09273 8.80286 3.51562 6.90041 3.51562ZM6.90041 9.38281C5.62548 9.38281 4.5926 8.32684 4.5926 7.03125C4.5926 5.73891 5.63211 4.67969 6.90041 4.67969C8.16871 4.67969 9.20439 5.73891 9.20439 7.03125C9.20439 8.30793 8.19555 9.38281 6.90041 9.38281Z" fill="black"/>
<path d="M6.90044 0C3.09554 0 0 3.15422 0 7.03125C0 8.34117 0.356101 9.61953 1.03004 10.7286L6.50765 19.723C6.61257 19.8953 6.79743 20 6.99624 20C6.99777 20 6.99927 20 7.0008 20C7.20133 19.9984 7.38657 19.8905 7.48958 19.7152L12.8276 10.6336C13.4643 9.54797 13.8009 8.30231 13.8009 7.03125C13.8009 3.15422 10.7053 0 6.90044 0ZM11.8406 10.032L6.98753 18.2885L2.00753 10.1112C1.44656 9.18805 1.14241 8.12305 1.14241 7.03125C1.14241 3.80039 3.72969 1.16406 6.90044 1.16406C10.0712 1.16406 12.6546 3.80039 12.6546 7.03125C12.6546 8.09066 12.3705 9.12844 11.8406 10.032Z" fill="#FEFCFC"/>
<path d="M6.90041 3.51562C4.99796 3.51562 3.4502 5.09273 3.4502 7.03125C3.4502 8.95738 4.97278 10.5469 6.90041 10.5469C8.85182 10.5469 10.3506 8.93621 10.3506 7.03125C10.3506 5.09273 8.80286 3.51562 6.90041 3.51562ZM6.90041 9.38281C5.62548 9.38281 4.5926 8.32684 4.5926 7.03125C4.5926 5.73891 5.63211 4.67969 6.90041 4.67969C8.16871 4.67969 9.20439 5.73891 9.20439 7.03125C9.20439 8.30793 8.19555 9.38281 6.90041 9.38281Z" fill="#FEFCFC"/>
</svg>
