<svg width="20" height="20" viewBox="0 0 20 20" fill="none" xmlns="http://www.w3.org/2000/svg">
<path d="M15.5205 12.3893C15.1181 11.963 14.6327 11.735 14.1183 11.735C13.608 11.735 13.1185 11.9587 12.6994 12.3851L11.3885 13.7147C11.2806 13.6556 11.1727 13.6008 11.069 13.5459C10.9197 13.4699 10.7786 13.3981 10.6583 13.3222C9.43032 12.5286 8.31434 11.4944 7.24399 10.1563C6.72541 9.48937 6.37693 8.92795 6.12386 8.3581C6.46405 8.04151 6.77935 7.71227 7.08634 7.39568C7.20251 7.27749 7.31867 7.15508 7.43483 7.03688C8.30604 6.15044 8.30604 5.00229 7.43483 4.11586L6.30225 2.96349C6.17364 2.83263 6.04089 2.69755 5.91643 2.56248C5.66751 2.30077 5.40615 2.03061 5.13649 1.77734C4.73407 1.37212 4.25283 1.15684 3.74669 1.15684C3.24056 1.15684 2.75102 1.37212 2.33616 1.77734C2.33201 1.78157 2.33201 1.78157 2.32786 1.78579L0.917325 3.23364C0.386299 3.77394 0.0834492 4.43244 0.017071 5.19647C-0.0824962 6.42904 0.274286 7.57719 0.548096 8.32855C1.22017 10.1732 2.22414 11.8828 3.7218 13.7147C5.5389 15.9224 7.72523 17.6657 10.2227 18.8941C11.1769 19.3542 12.4505 19.8987 13.8735 19.9916C13.9606 19.9958 14.0519 20 14.1349 20C15.0932 20 15.898 19.6496 16.5286 18.9532C16.5328 18.9447 16.5411 18.9405 16.5452 18.9321C16.761 18.6661 17.0099 18.4255 17.2712 18.168C17.4496 17.995 17.6322 17.8135 17.8106 17.6235C18.2213 17.1887 18.437 16.6822 18.437 16.163C18.437 15.6396 18.2171 15.1372 17.7981 14.7151L15.5205 12.3893ZM17.0057 16.8341C17.0016 16.8341 17.0016 16.8384 17.0057 16.8341C16.8439 17.0114 16.678 17.1718 16.4996 17.3491C16.2299 17.6108 15.9561 17.8852 15.6989 18.1934C15.2799 18.6492 14.7862 18.8645 14.139 18.8645C14.0768 18.8645 14.0104 18.8645 13.9482 18.8603C12.716 18.7801 11.571 18.2904 10.7122 17.8725C8.36412 16.716 6.30225 15.0739 4.58887 12.9929C3.17418 11.258 2.22829 9.65399 1.60185 7.93177C1.21603 6.8807 1.07497 6.0618 1.1372 5.28933C1.17869 4.79546 1.36538 4.38601 1.70971 4.03565L3.1244 2.59625C3.32768 2.40207 3.54341 2.29654 3.75499 2.29654C4.01635 2.29654 4.22793 2.45695 4.36069 2.59202C4.36484 2.59625 4.36899 2.60047 4.37314 2.60469C4.6262 2.84529 4.86682 3.09434 5.11989 3.36027C5.2485 3.49535 5.38125 3.63042 5.51401 3.76972L6.64659 4.92209C7.08634 5.36953 7.08634 5.78321 6.64659 6.23065C6.52628 6.35306 6.41012 6.47547 6.28981 6.59366C5.94132 6.95668 5.60943 7.29437 5.2485 7.62362C5.2402 7.63206 5.2319 7.63629 5.22776 7.64473C4.87097 8.00775 4.93735 8.36232 5.01203 8.60293C5.01618 8.61559 5.02032 8.62825 5.02447 8.64092C5.31903 9.36695 5.73389 10.0508 6.36448 10.8655L6.36863 10.8697C7.51365 12.3049 8.72091 13.4235 10.0526 14.2804C10.2227 14.3901 10.397 14.4788 10.5629 14.5632C10.7122 14.6392 10.8533 14.7109 10.9736 14.7869C10.9902 14.7953 11.0068 14.808 11.0234 14.8164C11.1645 14.8882 11.2972 14.922 11.4341 14.922C11.7784 14.922 11.9942 14.7025 12.0647 14.6307L13.4835 13.1871C13.6246 13.0436 13.8486 12.8705 14.11 12.8705C14.3672 12.8705 14.5788 13.0351 14.7074 13.1786C14.7115 13.1829 14.7115 13.1829 14.7157 13.1871L17.0016 15.5129C17.4289 15.9435 17.4289 16.3867 17.0057 16.8341Z" fill="#FEFCFC"/>
<path d="M10.6085 4.75747C11.6954 4.9432 12.6828 5.46662 13.471 6.26863C14.2593 7.07065 14.7695 8.07528 14.9562 9.18122C15.0019 9.45982 15.2383 9.65399 15.508 9.65399C15.5412 9.65399 15.5702 9.64977 15.6034 9.64555C15.9104 9.59489 16.1137 9.29941 16.0639 8.98705C15.8399 7.64895 15.2176 6.42904 14.2676 5.4624C13.3175 4.49576 12.1186 3.86258 10.8035 3.63464C10.4965 3.58399 10.2102 3.79083 10.1563 4.09897C10.1023 4.40711 10.3015 4.70681 10.6085 4.75747Z" fill="#FEFCFC"/>
<path d="M19.6193 8.82242C19.2501 6.61899 18.2295 4.61395 16.6614 3.01836C15.0932 1.42277 13.1226 0.384369 10.957 0.00868773C10.6541 -0.0461871 10.3679 0.16487 10.314 0.473013C10.2642 0.785377 10.4675 1.07664 10.7744 1.13151C12.7077 1.46498 14.4709 2.39785 15.8731 3.82038C17.2754 5.24712 18.1881 7.04111 18.5158 9.00816C18.5614 9.28675 18.7979 9.48092 19.0676 9.48092C19.1008 9.48092 19.1298 9.4767 19.163 9.47248C19.4658 9.42605 19.6733 9.13057 19.6193 8.82242Z" fill="#FEFCFC"/>
</svg>
